<mxfile host="Electron" agent="Mozilla/5.0 (X11; Linux x86_64) AppleWebKit/537.36 (KHTML, like Gecko) draw.io/24.7.8 Chrome/128.0.6613.36 Electron/32.0.1 Safari/537.36" version="24.7.8">
  <diagram name="Page-1" id="XW5AaUWIStw-l7BBF5Db">
    <mxGraphModel dx="1509" dy="886" grid="1" gridSize="10" guides="1" tooltips="1" connect="1" arrows="1" fold="1" page="1" pageScale="1" pageWidth="850" pageHeight="1100" math="0" shadow="0">
      <root>
        <mxCell id="0" />
        <mxCell id="1" parent="0" />
        <mxCell id="eEVLpC4P0MkOvOGMiZAz-10" style="edgeStyle=orthogonalEdgeStyle;rounded=0;orthogonalLoop=1;jettySize=auto;html=1;exitX=0.5;exitY=0;exitDx=0;exitDy=0;entryX=0.5;entryY=1;entryDx=0;entryDy=0;" parent="1" source="eEVLpC4P0MkOvOGMiZAz-2" target="eEVLpC4P0MkOvOGMiZAz-3" edge="1">
          <mxGeometry relative="1" as="geometry" />
        </mxCell>
        <mxCell id="eEVLpC4P0MkOvOGMiZAz-2" value="SP7021" style="rounded=0;whiteSpace=wrap;html=1;" parent="1" vertex="1">
          <mxGeometry x="320" y="640" width="120" height="120" as="geometry" />
        </mxCell>
        <mxCell id="eEVLpC4P0MkOvOGMiZAz-5" style="edgeStyle=orthogonalEdgeStyle;rounded=0;orthogonalLoop=1;jettySize=auto;html=1;exitX=1;exitY=0.5;exitDx=0;exitDy=0;entryX=0;entryY=0.5;entryDx=0;entryDy=0;startArrow=classic;startFill=1;" parent="1" source="eEVLpC4P0MkOvOGMiZAz-3" target="eEVLpC4P0MkOvOGMiZAz-4" edge="1">
          <mxGeometry relative="1" as="geometry" />
        </mxCell>
        <mxCell id="eEVLpC4P0MkOvOGMiZAz-9" style="edgeStyle=orthogonalEdgeStyle;rounded=0;orthogonalLoop=1;jettySize=auto;html=1;exitX=0.5;exitY=0;exitDx=0;exitDy=0;entryX=0.5;entryY=1;entryDx=0;entryDy=0;" parent="1" source="eEVLpC4P0MkOvOGMiZAz-3" target="eEVLpC4P0MkOvOGMiZAz-8" edge="1">
          <mxGeometry relative="1" as="geometry" />
        </mxCell>
        <mxCell id="eEVLpC4P0MkOvOGMiZAz-3" value="CCGM1A1" style="rounded=0;whiteSpace=wrap;html=1;" parent="1" vertex="1">
          <mxGeometry x="320" y="480" width="120" height="120" as="geometry" />
        </mxCell>
        <mxCell id="eEVLpC4P0MkOvOGMiZAz-4" value="MicroMemory&lt;div&gt;SDR/DDR x32&lt;/div&gt;" style="rounded=0;whiteSpace=wrap;html=1;" parent="1" vertex="1">
          <mxGeometry x="480" y="480" width="80" height="120" as="geometry" />
        </mxCell>
        <mxCell id="eEVLpC4P0MkOvOGMiZAz-8" value="800x480 Touchscreen" style="rounded=0;whiteSpace=wrap;html=1;" parent="1" vertex="1">
          <mxGeometry x="280" y="220" width="200" height="220" as="geometry" />
        </mxCell>
        <mxCell id="XAo4WEKmcAc0FiUD0LnQ-1" value="MediaCow Touch Mini SP7021 &quot;Floyds Knobs&quot; CTCL 2021-2024&lt;br style=&quot;font-size: 24px;&quot;&gt;Description: Main system layout idea&lt;br&gt;&lt;span style=&quot;background-color: initial;&quot;&gt;Created: August 29, 2024&lt;/span&gt;&lt;div style=&quot;font-size: 24px;&quot;&gt;Modified: August 29, 2024&lt;/div&gt;&lt;div style=&quot;font-size: 24px;&quot;&gt;Not to scale&lt;/div&gt;" style="text;html=1;align=left;verticalAlign=top;whiteSpace=wrap;rounded=0;fontSize=24;" vertex="1" parent="1">
          <mxGeometry x="10" y="940" width="720" height="150" as="geometry" />
        </mxCell>
      </root>
    </mxGraphModel>
  </diagram>
</mxfile>
